<svg width="196" height="100" viewBox="0 0 196 100" fill="none" xmlns="http://www.w3.org/2000/svg">
<path d="M97.5 73.125C97.5 73.4011 97.7239 73.625 98 73.625C98.2761 73.625 98.5 73.4011 98.5 73.125V0.5H115.263V15.625V35.5C115.263 36.8807 116.382 38 117.763 38H123.562C124.943 38 126.062 36.8807 126.062 35.5V34.875H159.975V35.5C159.975 36.8807 161.094 38 162.475 38H168.275C169.656 38 170.775 36.8807 170.775 35.5V15.625V0.5H194C194.828 0.5 195.5 1.17157 195.5 2V98C195.5 98.8284 194.828 99.5 194 99.5H2C1.17157 99.5 0.5 98.8284 0.5 98V2C0.5 1.17157 1.17157 0.5 2 0.5H25.225V20V69.25C25.225 70.6307 26.3443 71.75 27.725 71.75H71.5C72.8807 71.75 74 70.6307 74 69.25V20V0.5H97.5V73.125ZM116.263 15.125V0.5H169.775V15.125H160.475H125.562H116.263ZM26.225 19.5V0.5H31.35V12.375C31.35 13.7557 32.4693 14.875 33.85 14.875H44.55C45.9307 14.875 47.05 13.7557 47.05 12.375V0.5H52.175V12.375C52.175 13.7557 53.2943 14.875 54.675 14.875H65.375C66.7557 14.875 67.875 13.7557 67.875 12.375V0.5H73V19.5H26.225ZM32.35 12.375V0.5H46.05V12.375C46.05 13.2034 45.3784 13.875 44.55 13.875H33.85C33.0216 13.875 32.35 13.2034 32.35 12.375ZM53.175 12.375V0.5H66.875V12.375C66.875 13.2034 66.2034 13.875 65.375 13.875H54.675C53.8466 13.875 53.175 13.2034 53.175 12.375ZM26.225 20.5H73V69.25C73 70.0784 72.3284 70.75 71.5 70.75H27.725C26.8966 70.75 26.225 70.0784 26.225 69.25V20.5ZM160.975 16.125H169.775V35.5C169.775 36.3284 169.103 37 168.275 37H162.475C161.647 37 160.975 36.3284 160.975 35.5V34.375V16.125ZM126.062 16.125H159.975V33.875H126.062V16.125ZM116.263 16.125H125.062V34.375V35.5C125.062 36.3284 124.391 37 123.562 37H117.763C116.934 37 116.263 36.3284 116.263 35.5V16.125Z" stroke="#29354B" stroke-linecap="round" stroke-linejoin="round"/>
<path d="M172.5 57C172.5 59.5046 170.719 61.8697 167.626 63.6369C164.548 65.3961 160.262 66.5 155.5 66.5C150.738 66.5 146.452 65.3961 143.374 63.6369C140.281 61.8697 138.5 59.5046 138.5 57C138.5 54.4954 140.281 52.1303 143.374 50.3631C146.452 48.6039 150.738 47.5 155.5 47.5C160.262 47.5 164.548 48.6039 167.626 50.3631C170.719 52.1303 172.5 54.4954 172.5 57Z" stroke="#29354B"/>
</svg>
