<svg width="70" height="70" viewBox="0 0 70 70" fill="none" xmlns="http://www.w3.org/2000/svg">
<g clip-path="url(#clip0_4_27)">
<rect width="70" height="70" fill="#778379"/>
<g filter="url(#filter0_d_4_27)">
<path d="M70 0H0V70H70V0Z" fill="#F5F5F5"/>
<path d="M70 0H0V70H70V0Z" fill="#778379"/>
<path d="M69 1H1V69H69V1Z" stroke="#DBCFB5" stroke-width="2"/>
<path d="M35 69C53.7777 69 69 53.7777 69 35C69 16.2223 53.7777 1 35 1C16.2223 1 1 16.2223 1 35C1 53.7777 16.2223 69 35 69Z" stroke="#DBCFB5" stroke-width="2"/>
<path d="M27.5838 22.5455V48H24.5014V25.777H24.3523L18.1378 29.9034V26.7713L24.5014 22.5455H27.5838ZM34.3079 42.7798V40.2443L45.494 22.5455H47.3335V26.473H46.0906L37.6388 39.8466V40.0455H52.7028V42.7798H34.3079ZM46.2894 48V42.0092V40.8285V22.5455H49.2227V48H46.2894Z" fill="#DBCFB5"/>
</g>
</g>
<defs>
<filter id="filter0_d_4_27" x="-4" y="0" width="78" height="78" filterUnits="userSpaceOnUse" color-interpolation-filters="sRGB">
<feFlood flood-opacity="0" result="BackgroundImageFix"/>
<feColorMatrix in="SourceAlpha" type="matrix" values="0 0 0 0 0 0 0 0 0 0 0 0 0 0 0 0 0 0 127 0" result="hardAlpha"/>
<feOffset dy="4"/>
<feGaussianBlur stdDeviation="2"/>
<feComposite in2="hardAlpha" operator="out"/>
<feColorMatrix type="matrix" values="0 0 0 0 0 0 0 0 0 0 0 0 0 0 0 0 0 0 0.25 0"/>
<feBlend mode="normal" in2="BackgroundImageFix" result="effect1_dropShadow_4_27"/>
<feBlend mode="normal" in="SourceGraphic" in2="effect1_dropShadow_4_27" result="shape"/>
</filter>
<clipPath id="clip0_4_27">
<rect width="70" height="70" fill="white"/>
</clipPath>
</defs>
</svg>
