<svg width="146" height="38" viewBox="0 0 146 38" fill="none" xmlns="http://www.w3.org/2000/svg">
<path fill-rule="evenodd" clip-rule="evenodd" d="M3.96742 38.0003L2.44141 36.4556L14.3443 24.4069C16.786 21.9353 20.7536 21.9353 23.1953 24.4069L35.0982 36.4556L33.5722 38.0003L21.6692 25.9516C20.1432 24.4069 17.3964 24.4069 15.5652 25.9516L3.96742 38.0003Z" fill="#D7D7D8"/>
<path fill-rule="evenodd" clip-rule="evenodd" d="M0 4.32498L1.52602 2.78027L13.429 14.829C15.8706 17.3005 15.8706 21.3167 13.429 23.7882L1.52602 35.8369L0 34.2922L11.9029 22.2435C13.429 20.6988 13.429 17.9184 11.9029 16.0647L0 4.32498Z" fill="#427E8F"/>
<path fill-rule="evenodd" clip-rule="evenodd" d="M34.1822 0L35.7082 1.5447L23.8053 13.5934C21.3636 16.0649 17.396 16.0649 14.9544 13.5934L3.05145 1.5447L4.57747 0L16.4804 12.0487C18.0064 13.5934 20.7533 13.5934 22.5845 12.0487L34.1822 0Z" fill="#326681"/>
<path fill-rule="evenodd" clip-rule="evenodd" d="M37.8451 33.9836L36.3191 35.5283L24.4162 23.4796C21.9746 21.0081 21.9746 16.9919 24.4162 14.5204L36.3191 2.47168L37.8451 4.01638L25.9422 15.7561C24.4162 17.3008 24.4162 20.0813 25.9422 21.9349L37.8451 33.9836Z" fill="#67B438" stroke="#67B438" stroke-width="0.216" stroke-miterlimit="10"/>
<path fill-rule="evenodd" clip-rule="evenodd" d="M56.9475 21.7636C52.5323 21.7636 49.0631 19.0423 49.0631 15.5787V2.96151H51.5861V15.5787C51.5861 17.8053 54.1091 19.7845 56.9475 19.7845C59.7859 19.7845 62.3089 17.8053 62.3089 15.5787V2.96151H64.8319V15.5787C64.5166 19.0423 61.0474 21.7636 56.9475 21.7636ZM137.999 3.20891L132.007 12.8574L126.015 3.20891H123.177L130.746 15.3313V21.5162H133.269V15.3313L140.838 3.20891H137.999ZM118.446 3.20891H103.939V5.18808H109.931V21.5162H112.454V5.18808H118.446V3.20891ZM96.0542 21.5162H93.5312V3.20891H96.0542V21.5162ZM86.5929 21.5162H84.0699V8.89902C84.0699 6.67245 81.5469 4.69328 78.7085 4.69328C75.8701 4.69328 73.3471 6.67245 73.3471 8.89902V21.5162H70.8241V8.89902C70.8241 5.43547 74.2932 2.71411 78.7085 2.71411C83.1238 2.71411 86.5929 5.43547 86.5929 8.89902V21.5162Z" fill="#336784"/>
<path d="M52.9281 32.096C52.9281 32.4694 52.8511 32.7937 52.6971 33.069C52.5431 33.3444 52.3214 33.5567 52.0321 33.706C51.7474 33.8554 51.4091 33.93 51.0171 33.93C50.6251 33.93 50.2844 33.8554 49.9951 33.706C49.7104 33.5567 49.4911 33.3444 49.3371 33.069C49.1831 32.7937 49.1061 32.4694 49.1061 32.096V30.619C49.1061 30.045 49.2764 29.5947 49.6171 29.268C49.9577 28.9367 50.4244 28.771 51.0171 28.771C51.6097 28.771 52.0764 28.9367 52.4171 29.268C52.7577 29.5947 52.9281 30.045 52.9281 30.619V32.096ZM49.7081 32.096C49.7081 32.4927 49.8224 32.803 50.0511 33.027C50.2797 33.251 50.6017 33.363 51.0171 33.363C51.4324 33.363 51.7521 33.251 51.9761 33.027C52.2047 32.803 52.3191 32.4927 52.3191 32.096V30.619C52.3191 30.2084 52.2047 29.891 51.9761 29.667C51.7521 29.4384 51.4324 29.324 51.0171 29.324C50.6017 29.324 50.2797 29.4384 50.0511 29.667C49.8224 29.891 49.7081 30.2084 49.7081 30.619V32.096ZM53.2575 34.812C53.2015 34.812 53.1735 34.784 53.1735 34.728V33.377C53.1735 33.3257 53.2015 33.3 53.2575 33.3H53.4535C53.6309 33.2394 53.7709 33.0784 53.8735 32.817C53.9809 32.5557 54.0695 32.1264 54.1395 31.529C54.2095 30.927 54.2725 30.0614 54.3285 28.932C54.3285 28.876 54.3565 28.848 54.4125 28.848H57.0515C57.1075 28.848 57.1355 28.8737 57.1355 28.925V33.3H57.5485C57.6045 33.3 57.6325 33.3257 57.6325 33.377V34.728C57.6325 34.784 57.6045 34.812 57.5485 34.812H57.1215C57.0982 34.812 57.0772 34.8027 57.0585 34.784C57.0445 34.77 57.0375 34.7514 57.0375 34.728V33.853H53.7685V34.728C53.7685 34.784 53.7405 34.812 53.6845 34.812H53.2575ZM54.9095 29.394C54.8675 30.5887 54.8022 31.4777 54.7135 32.061C54.6295 32.6444 54.4919 33.0574 54.3005 33.3H56.5335V29.394H54.9095ZM61.2482 28.925C61.2482 28.8737 61.2762 28.848 61.3322 28.848H61.7662C61.8175 28.848 61.8432 28.8737 61.8432 28.925V33.776C61.8432 33.8274 61.8175 33.853 61.7662 33.853H61.3322C61.2762 33.853 61.2482 33.8274 61.2482 33.776V31.585H58.9102V33.776C58.9102 33.8274 58.8845 33.853 58.8332 33.853H58.3992C58.3432 33.853 58.3152 33.8274 58.3152 33.776V28.925C58.3152 28.8737 58.3432 28.848 58.3992 28.848H58.8332C58.8845 28.848 58.9102 28.8737 58.9102 28.925V31.039H61.2482V28.925ZM66.5237 32.096C66.5237 32.4694 66.4467 32.7937 66.2927 33.069C66.1387 33.3444 65.917 33.5567 65.6277 33.706C65.343 33.8554 65.0047 33.93 64.6127 33.93C64.2207 33.93 63.88 33.8554 63.5907 33.706C63.306 33.5567 63.0867 33.3444 62.9327 33.069C62.7787 32.7937 62.7017 32.4694 62.7017 32.096V30.619C62.7017 30.045 62.872 29.5947 63.2127 29.268C63.5533 28.9367 64.02 28.771 64.6127 28.771C65.2053 28.771 65.672 28.9367 66.0127 29.268C66.3533 29.5947 66.5237 30.045 66.5237 30.619V32.096ZM63.3037 32.096C63.3037 32.4927 63.418 32.803 63.6467 33.027C63.8753 33.251 64.1973 33.363 64.6127 33.363C65.028 33.363 65.3477 33.251 65.5717 33.027C65.8003 32.803 65.9147 32.4927 65.9147 32.096V30.619C65.9147 30.2084 65.8003 29.891 65.5717 29.667C65.3477 29.4384 65.028 29.324 64.6127 29.324C64.1973 29.324 63.8753 29.4384 63.6467 29.667C63.418 29.891 63.3037 30.2084 63.3037 30.619V32.096ZM70.3795 30.136C70.3795 30.374 70.3188 30.591 70.1975 30.787C70.0761 30.983 69.8988 31.1207 69.6655 31.2C69.9361 31.298 70.1438 31.4544 70.2885 31.669C70.4378 31.8837 70.5125 32.1287 70.5125 32.404C70.5125 32.726 70.4355 33.0014 70.2815 33.23C70.1321 33.4587 69.9221 33.6337 69.6515 33.755C69.3855 33.8717 69.0798 33.93 68.7345 33.93C68.3611 33.93 68.0275 33.8764 67.7335 33.769C67.4441 33.6617 67.1968 33.5147 66.9915 33.328C66.9541 33.2907 66.9495 33.251 66.9775 33.209L67.2085 32.88C67.2225 32.8567 67.2388 32.845 67.2575 32.845C67.2761 32.8404 67.2948 32.8474 67.3135 32.866C67.4861 33.02 67.6915 33.1437 67.9295 33.237C68.1675 33.3257 68.4358 33.37 68.7345 33.37C69.0845 33.37 69.3645 33.2837 69.5745 33.111C69.7891 32.9337 69.8965 32.698 69.8965 32.404C69.8965 32.1427 69.7961 31.9304 69.5955 31.767C69.3995 31.6037 69.1008 31.522 68.6995 31.522H68.0205C67.9691 31.522 67.9435 31.4964 67.9435 31.445V31.06C67.9435 31.0087 67.9691 30.983 68.0205 30.983H68.7205C69.0565 30.983 69.3155 30.9037 69.4975 30.745C69.6795 30.5864 69.7705 30.3927 69.7705 30.164C69.7705 29.926 69.6771 29.7277 69.4905 29.569C69.3038 29.4104 69.0448 29.331 68.7135 29.331C68.1955 29.331 67.7638 29.4827 67.4185 29.786C67.3905 29.8047 67.3718 29.814 67.3625 29.814C67.3391 29.814 67.3181 29.8 67.2995 29.772L67.0755 29.457C67.0615 29.4337 67.0545 29.415 67.0545 29.401C67.0545 29.387 67.0638 29.366 67.0825 29.338C67.5071 28.96 68.0508 28.771 68.7135 28.771C69.0448 28.771 69.3365 28.834 69.5885 28.96C69.8405 29.0814 70.0341 29.247 70.1695 29.457C70.3095 29.6624 70.3795 29.8887 70.3795 30.136ZM74.2354 28.925C74.2354 28.8737 74.2634 28.848 74.3194 28.848H74.7534C74.8047 28.848 74.8304 28.8737 74.8304 28.925V33.776C74.8304 33.8274 74.8047 33.853 74.7534 33.853H74.3194C74.2634 33.853 74.2354 33.8274 74.2354 33.776V31.585H71.8974V33.776C71.8974 33.8274 71.8717 33.853 71.8204 33.853H71.3864C71.3304 33.853 71.3024 33.8274 71.3024 33.776V28.925C71.3024 28.8737 71.3304 28.848 71.3864 28.848H71.8204C71.8717 28.848 71.8974 28.8737 71.8974 28.925V31.039H74.2354V28.925ZM75.3669 33.853C75.3109 33.853 75.2899 33.8227 75.3039 33.762L77.0469 28.911C77.0609 28.869 77.0889 28.848 77.1309 28.848H77.6839C77.7305 28.848 77.7609 28.869 77.7749 28.911L79.5109 33.762C79.5155 33.7714 79.5179 33.783 79.5179 33.797C79.5179 33.8344 79.4945 33.853 79.4479 33.853H78.9789C78.9322 33.853 78.9019 33.832 78.8879 33.79L78.4609 32.544H76.3609L75.9269 33.79C75.9129 33.832 75.8825 33.853 75.8359 33.853H75.3669ZM77.3969 29.513L76.5429 31.991H78.2789L77.4249 29.513H77.3969ZM82.3466 33.853C82.2952 33.853 82.2696 33.8274 82.2696 33.776V31.879C81.8962 32.0424 81.5346 32.124 81.1846 32.124C80.6619 32.124 80.2419 31.984 79.9246 31.704C79.6072 31.424 79.4486 31.0204 79.4486 30.493V28.925C79.4486 28.8737 79.4742 28.848 79.5256 28.848H79.9736C80.0249 28.848 80.0506 28.8737 80.0506 28.925V30.465C80.0506 30.829 80.1579 31.1044 80.3726 31.291C80.5919 31.473 80.8789 31.564 81.2336 31.564C81.5929 31.564 81.9382 31.4777 82.2696 31.305V28.925C82.2696 28.8737 82.2952 28.848 82.3466 28.848H82.7876C82.8436 28.848 82.8716 28.8737 82.8716 28.925V33.776C82.8716 33.8274 82.8436 33.853 82.7876 33.853H82.3466ZM86.8397 28.925C86.8397 28.8737 86.8677 28.848 86.9237 28.848H87.3577C87.4091 28.848 87.4347 28.8737 87.4347 28.925V33.776C87.4347 33.8274 87.4091 33.853 87.3577 33.853H86.9237C86.8677 33.853 86.8397 33.8274 86.8397 33.776V31.585H84.5017V33.776C84.5017 33.8274 84.4761 33.853 84.4247 33.853H83.9907C83.9347 33.853 83.9067 33.8274 83.9067 33.776V28.925C83.9067 28.8737 83.9347 28.848 83.9907 28.848H84.4247C84.4761 28.848 84.5017 28.8737 84.5017 28.925V31.039H86.8397V28.925ZM92.1152 32.096C92.1152 32.4694 92.0382 32.7937 91.8842 33.069C91.7302 33.3444 91.5086 33.5567 91.2192 33.706C90.9346 33.8554 90.5962 33.93 90.2042 33.93C89.8122 33.93 89.4716 33.8554 89.1822 33.706C88.8976 33.5567 88.6782 33.3444 88.5242 33.069C88.3702 32.7937 88.2932 32.4694 88.2932 32.096V30.619C88.2932 30.045 88.4636 29.5947 88.8042 29.268C89.1449 28.9367 89.6116 28.771 90.2042 28.771C90.7969 28.771 91.2636 28.9367 91.6042 29.268C91.9449 29.5947 92.1152 30.045 92.1152 30.619V32.096ZM88.8952 32.096C88.8952 32.4927 89.0096 32.803 89.2382 33.027C89.4669 33.251 89.7889 33.363 90.2042 33.363C90.6196 33.363 90.9392 33.251 91.1632 33.027C91.3919 32.803 91.5062 32.4927 91.5062 32.096V30.619C91.5062 30.2084 91.3919 29.891 91.1632 29.667C90.9392 29.4384 90.6196 29.324 90.2042 29.324C89.7889 29.324 89.4669 29.4384 89.2382 29.667C89.0096 29.891 88.8952 30.2084 88.8952 30.619V32.096ZM97.6203 30.164C97.6203 30.3974 97.5666 30.605 97.4593 30.787C97.3566 30.9644 97.212 31.0974 97.0253 31.186C97.282 31.2794 97.4803 31.4334 97.6203 31.648C97.7603 31.858 97.8303 32.11 97.8303 32.404C97.8303 32.8614 97.6786 33.2184 97.3753 33.475C97.0766 33.727 96.6543 33.853 96.1083 33.853H94.4213C94.3653 33.853 94.3373 33.8274 94.3373 33.776V28.925C94.3373 28.8737 94.3653 28.848 94.4213 28.848H96.1153C96.6053 28.848 96.9786 28.967 97.2353 29.205C97.492 29.4384 97.6203 29.758 97.6203 30.164ZM97.0183 30.164C97.0183 29.9214 96.9413 29.7324 96.7873 29.597C96.6333 29.457 96.4093 29.387 96.1153 29.387H94.9323V30.941H96.1573C96.4233 30.941 96.6333 30.8757 96.7873 30.745C96.9413 30.6144 97.0183 30.4207 97.0183 30.164ZM96.1153 33.314C96.47 33.314 96.743 33.2394 96.9343 33.09C97.1303 32.936 97.2283 32.7074 97.2283 32.404C97.2283 32.1194 97.1373 31.8954 96.9553 31.732C96.778 31.564 96.512 31.48 96.1573 31.48H94.9323V33.314H96.1153ZM101.846 33.398C101.632 33.5754 101.387 33.7084 101.111 33.797C100.836 33.8857 100.551 33.93 100.257 33.93C99.9073 33.93 99.5923 33.8647 99.3123 33.734C99.037 33.6034 98.8177 33.4074 98.6543 33.146C98.4957 32.8847 98.4163 32.5697 98.4163 32.201V30.507C98.4163 30.1337 98.4957 29.8164 98.6543 29.555C98.8177 29.2937 99.037 29.0977 99.3123 28.967C99.5877 28.8364 99.898 28.771 100.243 28.771C100.509 28.771 100.771 28.813 101.027 28.897C101.284 28.981 101.52 29.1024 101.734 29.261C101.772 29.289 101.776 29.324 101.748 29.366L101.524 29.695C101.51 29.7184 101.492 29.73 101.468 29.73C101.45 29.73 101.429 29.723 101.405 29.709C101.237 29.5877 101.051 29.4944 100.845 29.429C100.645 29.3637 100.442 29.331 100.236 29.331C99.8443 29.331 99.541 29.436 99.3263 29.646C99.1163 29.856 99.0113 30.143 99.0113 30.507V32.194C99.0113 32.558 99.1187 32.845 99.3333 33.055C99.548 33.265 99.8513 33.37 100.243 33.37C100.472 33.37 100.698 33.3327 100.922 33.258C101.146 33.1834 101.349 33.076 101.531 32.936C101.545 32.922 101.562 32.915 101.58 32.915C101.604 32.915 101.622 32.929 101.636 32.957L101.867 33.279C101.881 33.2977 101.888 33.3164 101.888 33.335C101.888 33.3537 101.874 33.3747 101.846 33.398ZM105.493 33.307C105.544 33.307 105.57 33.3327 105.57 33.384V33.776C105.57 33.8274 105.544 33.853 105.493 33.853H102.567C102.511 33.853 102.483 33.8274 102.483 33.776V28.925C102.483 28.8737 102.511 28.848 102.567 28.848H105.395C105.446 28.848 105.472 28.8737 105.472 28.925V29.317C105.472 29.3684 105.446 29.394 105.395 29.394H103.085V31.032H105.234C105.285 31.032 105.311 31.06 105.311 31.116V31.501C105.311 31.557 105.285 31.585 105.234 31.585H103.085V33.307H105.493ZM107.773 33.853C107.717 33.853 107.689 33.8274 107.689 33.776V28.925C107.689 28.8737 107.717 28.848 107.773 28.848H111.154C111.21 28.848 111.238 28.8737 111.238 28.925V33.776C111.238 33.8274 111.21 33.853 111.154 33.853H110.713C110.661 33.853 110.636 33.8274 110.636 33.776V29.394H108.291V33.776C108.291 33.8274 108.265 33.853 108.214 33.853H107.773ZM114.035 28.848C114.585 28.848 115.012 28.9927 115.316 29.282C115.619 29.5714 115.771 29.9727 115.771 30.486C115.771 31.004 115.619 31.4077 115.316 31.697C115.012 31.9864 114.585 32.131 114.035 32.131H112.866V33.776C112.866 33.8274 112.84 33.853 112.789 33.853H112.348C112.296 33.853 112.271 33.8274 112.271 33.776V28.925C112.271 28.8737 112.296 28.848 112.348 28.848H114.035ZM113.972 31.578C114.77 31.578 115.169 31.214 115.169 30.486C115.169 29.7627 114.77 29.401 113.972 29.401H112.866V31.578H113.972ZM120.083 32.096C120.083 32.4694 120.006 32.7937 119.852 33.069C119.698 33.3444 119.476 33.5567 119.187 33.706C118.902 33.8554 118.564 33.93 118.172 33.93C117.78 33.93 117.439 33.8554 117.15 33.706C116.865 33.5567 116.646 33.3444 116.492 33.069C116.338 32.7937 116.261 32.4694 116.261 32.096V30.619C116.261 30.045 116.431 29.5947 116.772 29.268C117.112 28.9367 117.579 28.771 118.172 28.771C118.764 28.771 119.231 28.9367 119.572 29.268C119.912 29.5947 120.083 30.045 120.083 30.619V32.096ZM116.863 32.096C116.863 32.4927 116.977 32.803 117.206 33.027C117.434 33.251 117.756 33.363 118.172 33.363C118.587 33.363 118.907 33.251 119.131 33.027C119.359 32.803 119.474 32.4927 119.474 32.096V30.619C119.474 30.2084 119.359 29.891 119.131 29.667C118.907 29.4384 118.587 29.324 118.172 29.324C117.756 29.324 117.434 29.4384 117.206 29.667C116.977 29.891 116.863 30.2084 116.863 30.619V32.096ZM123.938 30.136C123.938 30.374 123.878 30.591 123.756 30.787C123.635 30.983 123.458 31.1207 123.224 31.2C123.495 31.298 123.703 31.4544 123.847 31.669C123.997 31.8837 124.071 32.1287 124.071 32.404C124.071 32.726 123.994 33.0014 123.84 33.23C123.691 33.4587 123.481 33.6337 123.21 33.755C122.944 33.8717 122.639 33.93 122.293 33.93C121.92 33.93 121.586 33.8764 121.292 33.769C121.003 33.6617 120.756 33.5147 120.55 33.328C120.513 33.2907 120.508 33.251 120.536 33.209L120.767 32.88C120.781 32.8567 120.798 32.845 120.816 32.845C120.835 32.8404 120.854 32.8474 120.872 32.866C121.045 33.02 121.25 33.1437 121.488 33.237C121.726 33.3257 121.995 33.37 122.293 33.37C122.643 33.37 122.923 33.2837 123.133 33.111C123.348 32.9337 123.455 32.698 123.455 32.404C123.455 32.1427 123.355 31.9304 123.154 31.767C122.958 31.6037 122.66 31.522 122.258 31.522H121.579C121.528 31.522 121.502 31.4964 121.502 31.445V31.06C121.502 31.0087 121.528 30.983 121.579 30.983H122.279C122.615 30.983 122.874 30.9037 123.056 30.745C123.238 30.5864 123.329 30.3927 123.329 30.164C123.329 29.926 123.236 29.7277 123.049 29.569C122.863 29.4104 122.604 29.331 122.272 29.331C121.754 29.331 121.323 29.4827 120.977 29.786C120.949 29.8047 120.931 29.814 120.921 29.814C120.898 29.814 120.877 29.8 120.858 29.772L120.634 29.457C120.62 29.4337 120.613 29.415 120.613 29.401C120.613 29.387 120.623 29.366 120.641 29.338C121.066 28.96 121.61 28.771 122.272 28.771C122.604 28.771 122.895 28.834 123.147 28.96C123.399 29.0814 123.593 29.247 123.728 29.457C123.868 29.6624 123.938 29.8887 123.938 30.136ZM126.625 28.848C127.176 28.848 127.603 28.9927 127.906 29.282C128.21 29.5714 128.361 29.9727 128.361 30.486C128.361 31.004 128.21 31.4077 127.906 31.697C127.603 31.9864 127.176 32.131 126.625 32.131H125.456V33.776C125.456 33.8274 125.431 33.853 125.379 33.853H124.938C124.887 33.853 124.861 33.8274 124.861 33.776V28.925C124.861 28.8737 124.887 28.848 124.938 28.848H126.625ZM126.562 31.578C127.36 31.578 127.759 31.214 127.759 30.486C127.759 29.7627 127.36 29.401 126.562 29.401H125.456V31.578H126.562ZM128.242 33.853C128.186 33.853 128.165 33.8227 128.179 33.762L129.922 28.911C129.936 28.869 129.964 28.848 130.006 28.848H130.559C130.606 28.848 130.636 28.869 130.65 28.911L132.386 33.762C132.391 33.7714 132.393 33.783 132.393 33.797C132.393 33.8344 132.37 33.853 132.323 33.853H131.854C131.808 33.853 131.777 33.832 131.763 33.79L131.336 32.544H129.236L128.802 33.79C128.788 33.832 128.758 33.853 128.711 33.853H128.242ZM130.272 29.513L129.418 31.991H131.154L130.3 29.513H130.272ZM135.222 33.853C135.171 33.853 135.145 33.8274 135.145 33.776V31.879C134.772 32.0424 134.41 32.124 134.06 32.124C133.537 32.124 133.117 31.984 132.8 31.704C132.483 31.424 132.324 31.0204 132.324 30.493V28.925C132.324 28.8737 132.35 28.848 132.401 28.848H132.849C132.9 28.848 132.926 28.8737 132.926 28.925V30.465C132.926 30.829 133.033 31.1044 133.248 31.291C133.467 31.473 133.754 31.564 134.109 31.564C134.468 31.564 134.814 31.4777 135.145 31.305V28.925C135.145 28.8737 135.171 28.848 135.222 28.848H135.663C135.719 28.848 135.747 28.8737 135.747 28.925V33.776C135.747 33.8274 135.719 33.853 135.663 33.853H135.222ZM139.715 28.925C139.715 28.8737 139.743 28.848 139.799 28.848H140.233C140.285 28.848 140.31 28.8737 140.31 28.925V33.776C140.31 33.8274 140.285 33.853 140.233 33.853H139.799C139.743 33.853 139.715 33.8274 139.715 33.776V31.585H137.377V33.776C137.377 33.8274 137.352 33.853 137.3 33.853H136.866C136.81 33.853 136.782 33.8274 136.782 33.776V28.925C136.782 28.8737 136.81 28.848 136.866 28.848H137.3C137.352 28.848 137.377 28.8737 137.377 28.925V31.039H139.715V28.925ZM144.991 32.096C144.991 32.4694 144.914 32.7937 144.76 33.069C144.606 33.3444 144.384 33.5567 144.095 33.706C143.81 33.8554 143.472 33.93 143.08 33.93C142.688 33.93 142.347 33.8554 142.058 33.706C141.773 33.5567 141.554 33.3444 141.4 33.069C141.246 32.7937 141.169 32.4694 141.169 32.096V30.619C141.169 30.045 141.339 29.5947 141.68 29.268C142.02 28.9367 142.487 28.771 143.08 28.771C143.672 28.771 144.139 28.9367 144.48 29.268C144.82 29.5947 144.991 30.045 144.991 30.619V32.096ZM141.771 32.096C141.771 32.4927 141.885 32.803 142.114 33.027C142.342 33.251 142.664 33.363 143.08 33.363C143.495 33.363 143.815 33.251 144.039 33.027C144.267 32.803 144.382 32.4927 144.382 32.096V30.619C144.382 30.2084 144.267 29.891 144.039 29.667C143.815 29.4384 143.495 29.324 143.08 29.324C142.664 29.324 142.342 29.4384 142.114 29.667C141.885 29.891 141.771 30.2084 141.771 30.619V32.096Z" fill="#336784"/>
</svg>
